<?xml version="1.0" encoding="iso-8859-1"?>
<!-- Generator: Adobe Illustrator 19.0.0, SVG Export Plug-In . SVG Version: 6.00 Build 0)  -->
<svg version="1.1" id="Capa_1" xmlns="http://www.w3.org/2000/svg" xmlns:xlink="http://www.w3.org/1999/xlink" x="0px" y="0px"
	 viewBox="0 0 512 512" style="enable-background:new 0 0 512 512;" xml:space="preserve">
<path style="fill:#E6AF78;" d="M135.96,406.456l-35.41-17.705c-2.763-1.382-4.509-4.206-4.509-7.295v-19.427H63.417v19.427
	c0,3.089-1.745,5.914-4.509,7.295l-35.411,17.706c-5.526,2.763-9.017,8.411-9.017,14.589v47.011c0,9.009,7.303,16.312,16.312,16.312
	h97.872c9.009,0,16.312-7.303,16.312-16.312v-47.011C144.978,414.868,141.487,409.219,135.96,406.456z"/>
<path style="fill:#C9C6CA;" d="M30.793,484.369h97.872c9.009,0,16.312-7.303,16.312-16.312v-47.011
	c0-6.179-3.491-11.827-9.017-14.59l-29.044-14.523l-21.42,21.42c-3.185,3.185-8.349,3.185-11.534,0l-21.42-21.42l-29.044,14.522
	c-5.526,2.763-9.017,8.411-9.017,14.589v47.011C14.481,477.066,21.784,484.369,30.793,484.369z"/>
<path style="fill:#D29B6E;" d="M79.729,386.497c5.839,0,11.414-1.076,16.606-2.952c-0.179-0.674-0.294-1.372-0.294-2.089v-19.427
	H63.417v19.427c0,0.717-0.114,1.415-0.294,2.089C68.316,385.421,73.89,386.497,79.729,386.497z"/>
<path style="fill:#F0C087;" d="M79.729,370.185L79.729,370.185c-18.018,0-32.624-14.606-32.624-32.624v-16.312
	c0-18.018,14.606-32.624,32.624-32.624l0,0c18.018,0,32.624,14.606,32.624,32.624v16.312
	C112.353,355.578,97.747,370.185,79.729,370.185z"/>
<path style="fill:#E6AF78;" d="M71.573,345.717v-32.624c0-9.643,4.263-18.218,10.914-24.19c-0.924-0.079-1.813-0.278-2.758-0.278
	c-18.018,0-32.624,14.606-32.624,32.624v16.312c0,18.018,14.606,32.624,32.624,32.624c0.945,0,1.834-0.199,2.758-0.278
	C75.836,363.935,71.573,355.36,71.573,345.717z"/>
<path style="fill:#6E4B53;" d="M112.353,329.404c-32.624,0-65.248-8.156-65.248-8.156l0,0c0-18.018,14.606-32.624,32.624-32.624l0,0
	c18.018,0,32.624,14.606,32.624,32.624V329.404z"/>
<path style="fill:#5C414B;" d="M82.488,288.902c-0.924-0.079-1.813-0.278-2.758-0.278c-18.018,0-32.624,14.606-32.624,32.624
	c0,0,10.014,2.497,24.468,4.728v-12.884C71.573,303.449,75.836,294.875,82.488,288.902z"/>
<g>
	<path style="fill:#DBD9DC;" d="M43.027,446.268c0-4.326-1.719-8.475-4.778-11.534l-21.618-21.618
		c-1.338,2.39-2.151,5.086-2.151,7.93v47.012c0,9.009,7.303,16.312,16.312,16.312h12.234L43.027,446.268L43.027,446.268z"/>
	<path style="fill:#DBD9DC;" d="M116.431,446.268c0-4.326,1.719-8.475,4.778-11.534l21.618-21.618
		c1.338,2.39,2.151,5.086,2.151,7.93v47.012c0,9.009-7.303,16.312-16.312,16.312h-12.234L116.431,446.268L116.431,446.268z"/>
	<path style="fill:#DBD9DC;" d="M73.962,413.354l-2.389-2.389v73.404h16.312v-73.404l-2.389,2.389
		C82.311,416.539,77.147,416.539,73.962,413.354z"/>
</g>
<path style="fill:#E6AF78;" d="M294.572,379.733l-42.705-21.352c-5.526-2.763-9.017-8.412-9.017-14.59v-22.543h-48.936v22.543
	c0,6.179-3.491,11.827-9.017,14.59l-42.705,21.352c-8.289,4.145-13.526,12.617-13.526,21.885v66.438
	c0,9.009,7.303,16.312,16.312,16.312h146.809c9.009,0,16.312-7.303,16.312-16.312v-66.437
	C308.098,392.351,302.862,383.878,294.572,379.733z"/>
<path style="fill:#D29B6E;" d="M243.441,348c-0.363-1.358-0.591-2.763-0.591-4.209v-22.543h-48.936v22.543
	c0,1.446-0.228,2.851-0.591,4.209c7.578,3.723,16.063,5.873,25.059,5.873C227.379,353.873,235.864,351.723,243.441,348z"/>
<path style="fill:#F0C087;" d="M177.602,256v40.78c0,22.522,18.258,40.78,40.78,40.78s40.78-18.258,40.78-40.78V256H177.602z"/>
<path style="fill:#E6AF78;" d="M202.07,296.78V256h-24.468v40.78c0,22.522,18.258,40.78,40.78,40.78
	c4.292,0,8.349-0.846,12.234-2.075C214.113,330.264,202.07,315.01,202.07,296.78z"/>
<path style="fill:#6E4B53;" d="M267.318,272.056v-7.899c0-22.522-18.258-40.78-40.78-40.78h-16.312
	c-22.522,0-40.78,18.258-40.78,40.78v6.334c0,5.669,5.591,9.564,10.94,7.684c4.999-1.756,11.239-4.858,17.69-10.333
	c2.473-2.099,5.968-2.415,8.852-0.93c8.125,4.185,26.127,11.816,51.609,13.302C263.267,280.489,267.318,276.795,267.318,272.056z"/>
<path style="fill:#5C414B;" d="M202.07,224.198c-18.613,3.779-32.624,20.23-32.624,39.958v6.334c0,5.669,5.591,9.564,10.94,7.685
	c4.998-1.757,11.238-4.858,17.69-10.333c1.16-0.985,2.553-1.541,3.994-1.739L202.07,224.198L202.07,224.198z"/>
<path style="fill:#867E88;" d="M144.978,484.369h146.809c9.009,0,16.312-7.303,16.312-16.312v-66.438
	c0-9.268-5.236-17.74-13.526-21.885l-42.705-21.352c-2.981-1.491-5.298-3.859-6.866-6.66l-15.085,15.085
	c-6.37,6.37-16.698,6.37-23.069,0l-15.085-15.085c-1.568,2.801-3.885,5.169-6.866,6.66l-42.705,21.352
	c-8.289,4.145-13.526,12.617-13.526,21.885v66.438C128.665,477.066,135.969,484.369,144.978,484.369z"/>
<g>
	<path style="fill:#9C969E;" d="M154.123,403.798l-18.836-18.836c-4.157,4.456-6.622,10.354-6.622,16.657v66.438
		c0,9.009,7.303,16.312,16.312,16.312h16.312V421.1C161.29,414.61,158.712,408.387,154.123,403.798z"/>
	<path style="fill:#9C969E;" d="M282.64,403.798l18.836-18.836c4.157,4.456,6.622,10.354,6.622,16.657v66.438
		c0,9.009-7.303,16.312-16.312,16.312h-16.312V421.1C275.474,414.61,278.052,408.387,282.64,403.798z"/>
	<path style="fill:#9C969E;" d="M210.226,369.327v115.042h16.312V369.327C221.495,372.254,215.268,372.254,210.226,369.327z"/>
</g>
<path style="fill:#C9C6CA;" d="M511.386,41.18c-1.107-2.708-3.584-4.612-6.491-4.986l-65.208-8.491
	c-4.492-0.605-8.554,2.565-9.136,7.033c-0.581,4.468,2.565,8.554,7.033,9.136l34.814,4.535L5.059,240.301
	c-4.166,1.712-6.157,6.475-4.444,10.641C1.905,254.096,4.948,256,8.158,256c1.035,0,2.087-0.191,3.098-0.613L478.5,63.531
	l-21.514,27.605c-2.764,3.552-2.135,8.674,1.426,11.446c1.489,1.155,3.25,1.72,5.002,1.72c2.429,0,4.835-1.075,6.444-3.146
	l40.422-51.867C512.078,46.986,512.501,43.888,511.386,41.18z"/>
<path style="fill:#E6AF78;" d="M484.468,347.962l-44.342-20.529c-5.891-2.727-9.687-8.813-9.687-15.528v-31.437l-65.247,0.001
	v31.437c0,6.715-3.796,12.799-9.687,15.526l-44.344,20.53c-11.781,5.454-19.374,17.624-19.374,31.054v88.361
	c0,9.384,7.303,16.992,16.312,16.992h179.432c9.009,0,16.312-7.607,16.312-16.992v-88.36
	C503.843,365.587,496.25,353.416,484.468,347.962z"/>
<path style="fill:#4B3F4E;" d="M308.099,484.369h179.432c9.009,0,16.312-7.607,16.312-16.992v-88.36
	c0-13.43-7.593-25.601-19.375-31.055l-44.041-20.389l-31.078,31.078c-6.37,6.37-16.698,6.37-23.069,0l-31.078-31.078l-44.042,20.39
	c-11.782,5.454-19.374,17.624-19.374,31.054v88.361C291.787,476.762,299.09,484.369,308.099,484.369z"/>
<path style="fill:#D29B6E;" d="M365.191,280.469v31.437c0,3.112-0.888,6.048-2.35,8.618c10.403,5.662,22.32,8.881,34.974,8.881
	s24.57-3.218,34.973-8.88c-1.462-2.57-2.35-5.507-2.35-8.619v-31.437L365.191,280.469z"/>
<path style="fill:#F0C087;" d="M397.815,313.092L397.815,313.092c-31.531,0-57.092-25.561-57.092-57.092v-48.936h114.184V256
	C454.908,287.531,429.347,313.092,397.815,313.092z"/>
<path style="fill:#E6AF78;" d="M373.347,256v-48.936h-32.624V256c0,31.531,25.561,57.092,57.092,57.092
	c5.672,0,11.14-0.855,16.312-2.395C390.55,303.674,373.347,281.859,373.347,256z"/>
<path style="fill:#6E4B53;" d="M405.971,166.284h-16.312c-31.531,0-57.092,25.561-57.092,57.092v13.047
	c0,6.044,6.413,10.148,11.759,7.328c8.275-4.364,17.979-12.506,24.501-21.29c2.634-3.547,7.698-4.073,11.239-1.431
	c25.881,19.312,61.928,14.873,76.501,11.995c3.798-0.75,6.496-4.116,6.496-7.987v-1.663
	C463.064,191.845,437.503,166.284,405.971,166.284z"/>
<path style="fill:#5C414B;" d="M344.326,243.752c8.275-4.364,17.979-12.506,24.501-21.29c0.998-1.345,2.389-2.111,3.871-2.58
	c-11.531-16.051-12.317-33.943-10.884-46.324c-17.441,9.77-29.246,28.404-29.246,49.817v13.047
	C332.567,242.467,338.98,246.571,344.326,243.752z"/>
<g>
	<path style="fill:#5D5360;" d="M332.567,412.944c0-6.489-2.578-12.713-7.166-17.302l-30.677-30.677
		c-1.891,4.333-2.937,9.103-2.937,14.051v88.361c0,9.385,7.303,16.992,16.312,16.992h24.468V412.944z"/>
	<path style="fill:#5D5360;" d="M463.063,412.944c0-6.489,2.578-12.713,7.166-17.302l30.677-30.677
		c1.891,4.333,2.937,9.103,2.937,14.051v88.361c0,9.385-7.303,16.992-16.312,16.992h-24.468V412.944z"/>
	<path style="fill:#5D5360;" d="M389.659,361.171v123.198h16.312V361.171C400.929,364.098,394.702,364.098,389.659,361.171z"/>
</g>
<g>
</g>
<g>
</g>
<g>
</g>
<g>
</g>
<g>
</g>
<g>
</g>
<g>
</g>
<g>
</g>
<g>
</g>
<g>
</g>
<g>
</g>
<g>
</g>
<g>
</g>
<g>
</g>
<g>
</g>
</svg>
