<svg width="696" height="243" viewBox="0 0 696 243" fill="none" xmlns="http://www.w3.org/2000/svg">
<path d="M223.523 3.90773V90.156L151.591 215.645L151.558 215.685L140.347 235.245V148.956L223.523 3.90773Z" fill="#A67C50"/>
<path d="M360.645 2.58025V241.725H277.471V147.628L360.645 2.58025Z" fill="#A67C50"/>
<path d="M225.79 0.00393677L214.974 11.5949L214.941 11.6352C214.831 11.7264 214.732 11.8346 214.645 11.9571H214.612L6.80545 234.882H6.77587C6.67724 234.999 6.61149 235.08 6.57861 235.08V235.124C6.53209 235.16 6.48811 235.2 6.44711 235.245L0.003479 242.167L16.5728 213.31C16.6385 213.149 16.7372 213.029 16.8029 212.868L138.87 0.00393677H225.79Z" fill="#A67C50"/>
<path d="M225.79 0.00401306L223.521 3.90793L140.346 148.956L86.9231 242.167H0L6.77238 234.882H6.80525L214.612 11.9572L223.521 2.41877L225.79 0.00401306Z" fill="#A67C50"/>
<path d="M362.161 0.00392151L360.649 1.61376L347.235 16.026L347.203 16.0663L347.071 16.183C347.038 16.2675 347.005 16.2675 346.972 16.3077C346.94 16.348 346.94 16.348 346.907 16.348V16.3883L346.644 16.6297C346.529 16.7233 346.417 16.8312 346.315 16.9517L277.475 90.804L223.526 148.678L147.452 230.218L147.189 230.54C147.098 230.657 146.999 230.765 146.893 230.862L140.351 237.865L136.373 242.171L140.351 235.249L151.561 215.689L151.594 215.649L223.526 90.156L275.239 0.00392151H362.161Z" fill="#A67C50"/>
<path d="M362.161 0.00392151L360.649 2.57969L277.475 147.628L223.526 241.724L223.296 242.167H136.37L140.348 237.861L147.449 230.214L223.523 148.674L277.472 90.8L346.312 16.9476L346.64 16.6257L346.673 16.5855L346.903 16.3842V16.344C346.936 16.344 346.936 16.3037 346.969 16.3037L360.645 1.60976L362.161 0.00392151Z" fill="#A67C50"/>
<g style="mix-blend-mode:multiply" opacity="0.24">
<g style="mix-blend-mode:multiply" opacity="0.24">
<path d="M223.523 3.90773V80.5774L140.347 157.287V148.956L223.523 3.90773Z" fill="black"/>
</g>
</g>
<g style="mix-blend-mode:multiply" opacity="0.24">
<g style="mix-blend-mode:multiply" opacity="0.24">
<path d="M360.645 2.58025V78.3642L360.152 78.8069L277.471 155.074V147.628L360.645 2.58025Z" fill="black"/>
</g>
</g>
<g style="mix-blend-mode:multiply" opacity="0.25">
<g style="mix-blend-mode:multiply" opacity="0.25">
<path d="M225.79 0.00401306C225.034 1.45289 224.277 2.8615 223.521 4.27014C218.787 13.2008 213.987 22.0591 209.22 30.9536C203.697 41.2567 198.043 51.4793 192.388 61.7019C181.145 82.1418 169.803 102.507 158.362 122.796L141.102 153.182L140.346 154.51V148.956L86.9231 242.167H0C14.4653 241.402 28.9634 241.076 43.4616 240.517L85.7725 239.632C91.2298 229.771 96.7858 219.987 102.276 210.171L119.503 179.825L136.861 149.516L154.318 119.331C165.989 99.2478 177.791 79.2586 189.725 59.3635C195.643 49.4186 201.56 39.4415 207.609 29.5811C213.659 19.7208 219.642 9.79598 225.79 0.00401306Z" fill="black"/>
</g>
</g>
<g style="mix-blend-mode:multiply" opacity="0.25">
<g style="mix-blend-mode:multiply" opacity="0.25">
<path d="M362.161 0.00392151C361.668 0.969837 361.175 1.93572 360.649 2.86139C355.717 12.2791 350.622 21.6163 345.592 30.9535C340.101 41.2566 334.414 51.4792 328.792 61.7018C317.55 82.1417 306.197 102.506 294.735 122.796L277.475 153.182V147.628L223.526 241.724L223.296 242.167H136.37C150.868 241.402 165.333 241.076 179.831 240.517L222.175 239.631C227.599 229.771 233.155 219.987 238.646 210.171L255.905 179.825L273.231 149.516L290.688 119.331C302.359 99.2477 314.161 79.2585 326.095 59.3634C332.011 49.4185 337.928 39.4414 344.01 29.5811C350.027 19.6844 356.01 9.79589 362.161 0.00392151Z" fill="black"/>
</g>
</g>
<g style="mix-blend-mode:multiply" opacity="0.25">
<g style="mix-blend-mode:multiply" opacity="0.25">
<path d="M360.645 67.9001V241.725H277.471C284.408 241.201 291.345 240.88 298.282 240.517C305.218 240.155 312.122 239.914 319.059 239.632C332.109 239.189 345.128 238.948 358.18 238.746C358.081 225.26 358.015 211.781 358.048 198.258C358.081 183.77 358.147 169.281 358.344 154.792C358.541 140.304 358.739 125.851 359.133 111.366C359.265 104.122 359.528 96.8776 359.791 89.6332C359.889 86.0111 360.021 82.4332 360.152 78.811C360.284 75.1888 360.448 71.5183 360.645 67.9001Z" fill="black"/>
</g>
</g>
<path d="M423.609 38.8906H394.594V56.2812H422.766V66.5469H394.594V90.7344H423.609V101H383.672V28.625H423.609V38.8906ZM437.953 101V23.7031L490.734 78.9219V28.625H501.656V105.406L448.875 50.3281V101H437.953ZM539.016 38.8906V101H528.094V38.8906H511.453V28.625H555.609V38.8906H539.016ZM559.406 64.4844C559.406 54.2969 563.141 45.5469 570.609 38.2344C578.047 30.9219 586.984 27.2656 597.422 27.2656C607.734 27.2656 616.578 30.9531 623.953 38.3281C631.359 45.7031 635.062 54.5625 635.062 64.9062C635.062 75.3125 631.344 84.1406 623.906 91.3906C616.438 98.6719 607.422 102.312 596.859 102.312C587.516 102.312 579.125 99.0781 571.688 92.6094C563.5 85.4531 559.406 76.0781 559.406 64.4844ZM570.422 64.625C570.422 72.625 573.109 79.2031 578.484 84.3594C583.828 89.5156 590 92.0938 597 92.0938C604.594 92.0938 611 89.4688 616.219 84.2188C621.438 78.9062 624.047 72.4375 624.047 64.8125C624.047 57.0938 621.469 50.625 616.312 45.4062C611.188 40.1562 604.844 37.5312 597.281 37.5312C589.75 37.5312 583.391 40.1562 578.203 45.4062C573.016 50.5938 570.422 57 570.422 64.625ZM673.312 70.1562L695.719 101H682.359L661.688 71.375H659.719V101H648.797V28.625H661.594C671.156 28.625 678.062 30.4219 682.312 34.0156C687 38.0156 689.344 43.2969 689.344 49.8594C689.344 54.9844 687.875 59.3906 684.938 63.0781C682 66.7656 678.125 69.125 673.312 70.1562ZM659.719 61.8594H663.188C673.531 61.8594 678.703 57.9062 678.703 50C678.703 42.5938 673.672 38.8906 663.609 38.8906H659.719V61.8594Z" fill="#A67C50"/>
<path d="M381.141 235L396.375 157.188L421.219 213.438L446.953 157.188L460.641 235H449.438L442.453 191.312L421.031 238.328L400.219 191.266L392.438 235H381.141ZM472.406 198.484C472.406 188.297 476.141 179.547 483.609 172.234C491.047 164.922 499.984 161.266 510.422 161.266C520.734 161.266 529.578 164.953 536.953 172.328C544.359 179.703 548.062 188.562 548.062 198.906C548.062 209.312 544.344 218.141 536.906 225.391C529.438 232.672 520.422 236.312 509.859 236.312C500.516 236.312 492.125 233.078 484.688 226.609C476.5 219.453 472.406 210.078 472.406 198.484ZM483.422 198.625C483.422 206.625 486.109 213.203 491.484 218.359C496.828 223.516 503 226.094 510 226.094C517.594 226.094 524 223.469 529.219 218.219C534.438 212.906 537.047 206.438 537.047 198.812C537.047 191.094 534.469 184.625 529.312 179.406C524.188 174.156 517.844 171.531 510.281 171.531C502.75 171.531 496.391 174.156 491.203 179.406C486.016 184.594 483.422 191 483.422 198.625ZM572.719 162.625V235H561.797V162.625H572.719Z" fill="#A67C50"/>
</svg>
