<?xml version="1.0" encoding="iso-8859-1"?>
<!-- Generator: Adobe Illustrator 19.0.0, SVG Export Plug-In . SVG Version: 6.00 Build 0)  -->
<svg version="1.1" id="Capa_1" xmlns="http://www.w3.org/2000/svg" xmlns:xlink="http://www.w3.org/1999/xlink" x="0px" y="0px"
	 viewBox="0 0 512 512" style="enable-background:new 0 0 512 512;" xml:space="preserve">
<path style="fill:#6F6571;" d="M470.71,86.71H41.29c-9.121,0-16.516,7.394-16.516,16.516v289.032h462.452V103.226
	C487.226,94.104,479.831,86.71,470.71,86.71z"/>
<path style="fill:#FFFFFF;" d="M454.194,359.226H57.806c-4.561,0-8.258-3.697-8.258-8.258V119.742c0-4.561,3.697-8.258,8.258-8.258
	h396.387c4.561,0,8.258,3.697,8.258,8.258v231.226C462.452,355.529,458.754,359.226,454.194,359.226z"/>
<path style="fill:#E6AF78;" d="M250.563,311.088l-43.239-21.619c-5.596-2.798-9.13-8.517-9.13-14.773v-22.825h-49.548v22.825
	c0,6.256-3.535,11.975-9.13,14.773l-43.24,21.62c-8.393,4.197-13.695,12.775-13.695,22.159v25.979h181.677v-25.979
	C264.258,323.863,258.956,315.284,250.563,311.088z"/>
<path style="fill:#D29B6E;" d="M198.792,278.957c-0.368-1.374-0.599-2.798-0.599-4.262V251.87h-49.548v22.825
	c0,1.464-0.231,2.887-0.599,4.262c7.672,3.77,16.264,5.946,25.373,5.946S191.12,282.727,198.792,278.957z"/>
<path style="fill:#F0C087;" d="M132.129,185.806v41.29c0,22.804,18.486,41.29,41.29,41.29s41.29-18.486,41.29-41.29v-41.29H132.129z
	"/>
<path style="fill:#E6AF78;" d="M156.903,227.097v-41.29h-24.774v41.29c0,22.804,18.486,41.29,41.29,41.29
	c4.346,0,8.453-0.856,12.387-2.101C169.097,260.999,156.903,245.555,156.903,227.097z"/>
<path style="fill:#6E4B53;" d="M222.968,202.063v-7.998c0-22.804-18.486-41.29-41.29-41.29h-16.516
	c-22.804,0-41.29,18.486-41.29,41.29v6.413c0,5.74,5.661,9.683,11.076,7.781c5.061-1.778,11.379-4.918,17.912-10.463
	c2.504-2.125,6.042-2.446,8.962-0.942c8.227,4.237,26.454,11.964,52.254,13.469C218.866,210.602,222.968,206.861,222.968,202.063z"
	/>
<path style="fill:#5C414B;" d="M156.903,153.606c-18.846,3.827-33.032,20.483-33.032,40.458v6.413c0,5.74,5.661,9.683,11.077,7.781
	c5.061-1.779,11.379-4.919,17.911-10.463c1.175-0.997,2.585-1.56,4.044-1.761V153.606z"/>
<path style="fill:#DBD9DC;" d="M250.563,311.088l-34.645-17.322c-8.654,14.459-24.422,24.17-42.498,24.17
	s-33.845-9.711-42.498-24.17l-34.645,17.322c-8.393,4.197-13.695,12.775-13.695,22.159v25.979h181.677v-25.979
	C264.258,323.862,258.956,315.284,250.563,311.088z"/>
<path style="fill:#C9C6CA;" d="M0,392.258v16.516c0,9.122,7.395,16.516,16.516,16.516h478.968c9.122,0,16.516-7.395,16.516-16.516
	v-16.516c0-4.561-3.697-8.258-8.258-8.258H8.258C3.697,384,0,387.697,0,392.258z"/>
<path style="fill:#DBD9DC;" d="M503.742,384H8.258C3.697,384,0,387.697,0,392.258v8.258h512v-8.258
	C512,387.697,508.303,384,503.742,384z"/>
<path style="fill:#FF8087;" d="M404.645,251.871H289.032c-9.122,0-16.516-7.395-16.516-16.516V169.29
	c0-9.122,7.395-16.516,16.516-16.516h115.613c9.122,0,16.516,7.395,16.516,16.516v66.065
	C421.161,244.476,413.767,251.871,404.645,251.871z"/>
<g>
	<path style="fill:#FFFFFF;" d="M388.129,194.065h-82.581c-4.565,0-8.258-3.694-8.258-8.258c0-4.565,3.694-8.258,8.258-8.258h82.581
		c4.565,0,8.258,3.694,8.258,8.258S392.694,194.065,388.129,194.065z"/>
	<path style="fill:#FFFFFF;" d="M313.806,227.097h-8.258c-4.565,0-8.258-3.694-8.258-8.258s3.694-8.258,8.258-8.258h8.258
		c4.565,0,8.258,3.694,8.258,8.258S318.371,227.097,313.806,227.097z"/>
	<path style="fill:#FFFFFF;" d="M371.613,227.097h-24.774c-4.565,0-8.258-3.694-8.258-8.258s3.694-8.258,8.258-8.258h24.774
		c4.565,0,8.258,3.694,8.258,8.258S376.177,227.097,371.613,227.097z"/>
</g>
<path style="fill:#6F6571;" d="M396.387,293.161H297.29c-4.565,0-8.258-3.694-8.258-8.258s3.694-8.258,8.258-8.258h99.097
	c4.565,0,8.258,3.694,8.258,8.258S400.952,293.161,396.387,293.161z"/>
<g>
	<path style="fill:#867E88;" d="M330.323,326.194H297.29c-4.565,0-8.258-3.694-8.258-8.258s3.694-8.258,8.258-8.258h33.032
		c4.565,0,8.258,3.694,8.258,8.258S334.887,326.194,330.323,326.194z"/>
	<path style="fill:#867E88;" d="M396.387,326.194h-33.032c-4.565,0-8.258-3.694-8.258-8.258s3.694-8.258,8.258-8.258h33.032
		c4.565,0,8.258,3.694,8.258,8.258S400.952,326.194,396.387,326.194z"/>
</g>
<path style="fill:#C0BCC1;" d="M278.825,400.516h-45.649c-6.256,0-11.975-3.535-14.772-9.13L214.71,384h82.581l-3.693,7.386
	C290.799,396.982,285.081,400.516,278.825,400.516z"/>
<g>
	<path style="fill:#C9C6CA;" d="M103.934,339.289l-18.142-18.142c-2.04,3.635-3.212,7.77-3.212,12.099v25.979h32.124
		C113.117,351.735,109.431,344.786,103.934,339.289z"/>
	<path style="fill:#C9C6CA;" d="M242.904,339.289l18.142-18.142c2.04,3.635,3.212,7.77,3.212,12.099v25.979h-32.124
		C233.722,351.735,237.407,344.786,242.904,339.289z"/>
</g>
<g>
</g>
<g>
</g>
<g>
</g>
<g>
</g>
<g>
</g>
<g>
</g>
<g>
</g>
<g>
</g>
<g>
</g>
<g>
</g>
<g>
</g>
<g>
</g>
<g>
</g>
<g>
</g>
<g>
</g>
</svg>
